<svg id="logo" xmlns="http://www.w3.org/2000/svg" width="149.418" height="42" viewBox="0 0 149.418 42">
  <path id="Path_11" data-name="Path 11" d="M124.356,41.576a20.745,20.745,0,0,1-7.459-3.139,20.92,20.92,0,0,1-7.557-9.177q-.344-.813-.618-1.656-.231.68-.511,1.34A20.022,20.022,0,0,1,89.739,41.189H78.9v-.038H73.271L68.964,30.644H55.611L51.069,41.151H38.1L34.045,19.2,22.825,41.151,11.292,19.2,7.5,41.151H0L8.881,0,22.825,27.216,36.83,0l7.965,37.348L62.465,0,78.9,35.564V1.094H89.739a20.2,20.2,0,0,1,4.04.407,19.939,19.939,0,0,1,7.169,3.017,20.106,20.106,0,0,1,7.263,8.82q.279.66.511,1.34.274-.841.618-1.656a20.848,20.848,0,1,1,15.016,28.554Zm1.471-33.718a13.483,13.483,0,0,0-4.848,2.04,13.6,13.6,0,0,0-4.912,5.965,13.489,13.489,0,0,0-.79,2.545,13.691,13.691,0,0,0,0,5.465,13.485,13.485,0,0,0,2.04,4.848,13.6,13.6,0,0,0,5.965,4.912,13.489,13.489,0,0,0,2.545.79,13.691,13.691,0,0,0,5.465,0,13.483,13.483,0,0,0,4.848-2.04,13.6,13.6,0,0,0,4.912-5.965,13.5,13.5,0,0,0,.79-2.545,13.691,13.691,0,0,0,0-5.465,13.485,13.485,0,0,0-2.04-4.848,13.6,13.6,0,0,0-5.965-4.912,13.494,13.494,0,0,0-2.545-.79,13.691,13.691,0,0,0-5.465,0Zm-39.753.3V34.12h3.318a13.079,13.079,0,0,0,2.616-.264A12.907,12.907,0,0,0,96.648,31.9a13.019,13.019,0,0,0,4.7-5.71,12.912,12.912,0,0,0,.756-2.436,13.1,13.1,0,0,0,0-5.231,12.907,12.907,0,0,0-1.953-4.641,13.016,13.016,0,0,0-5.71-4.7,12.918,12.918,0,0,0-2.436-.756,13.079,13.079,0,0,0-2.616-.264H86.073ZM66.4,24.386l-3.934-9.6-4.149,9.6Z" fill="#1e3765"/>
</svg>
